<?xml version="1.0" encoding="UTF-8"?>
<svg id="_レイヤー_1" data-name="レイヤー_1" xmlns="http://www.w3.org/2000/svg" xmlns:xlink="http://www.w3.org/1999/xlink" version="1.1" viewBox="0 0 1024 1024">
  <!-- Generator: Adobe Illustrator 30.3.0, SVG Export Plug-In . SVG Version: 2.1.3 Build 182)  -->
  <defs>
    <style>
      .st0, .st1, .st2, .st3 {
        isolation: isolate;
      }

      .st4 {
        fill: url(#_名称未設定グラデーション_6);
      }

      .st5 {
        fill: url(#_名称未設定グラデーション_5);
      }

      .st6 {
        fill: url(#_名称未設定グラデーション_4);
      }

      .st7 {
        fill: url(#_名称未設定グラデーション_3);
      }

      .st8 {
        fill: url(#_名称未設定グラデーション_7);
      }

      .st1 {
        opacity: .85;
        stroke: url(#_名称未設定グラデーション_2);
      }

      .st1, .st9, .st10 {
        fill: none;
      }

      .st1, .st10 {
        stroke-linecap: round;
        stroke-width: 70px;
      }

      .st11 {
        stroke-opacity: .06;
      }

      .st11, .st12, .st2, .st3 {
        fill: #fff;
      }

      .st11, .st9 {
        stroke: #000;
      }

      .st13 {
        fill: #1d1d1f;
      }

      .st9 {
        stroke-miterlimit: 10;
      }

      .st10 {
        stroke: url(#_名称未設定グラデーション);
      }

      .st2 {
        opacity: .7;
      }

      .st3 {
        opacity: .9;
      }
    </style>
    <linearGradient id="_名称未設定グラデーション" data-name="名称未設定グラデーション" x1="90.27" y1="808.68" x2="92.22" y2="808.68" gradientTransform="translate(-32337 65278.05) scale(360 -80)" gradientUnits="userSpaceOnUse">
      <stop offset="0" stop-color="#4285f4"/>
      <stop offset=".25" stop-color="#ea4335"/>
      <stop offset=".5" stop-color="#fbbc05"/>
      <stop offset=".75" stop-color="#34a853"/>
      <stop offset="1" stop-color="#af52de"/>
    </linearGradient>
    <linearGradient id="_名称未設定グラデーション_2" data-name="名称未設定グラデーション 2" x1="90.27" y1="807.69" x2="92.22" y2="807.69" gradientTransform="translate(-32337 65358.05) scale(360 -80)" gradientUnits="userSpaceOnUse">
      <stop offset="0" stop-color="#4285f4"/>
      <stop offset=".25" stop-color="#ea4335"/>
      <stop offset=".5" stop-color="#fbbc05"/>
      <stop offset=".75" stop-color="#34a853"/>
      <stop offset="1" stop-color="#af52de"/>
    </linearGradient>
    <linearGradient id="_名称未設定グラデーション_3" data-name="名称未設定グラデーション 3" x1="89.9" y1="809.45" x2="91.88" y2="807.47" gradientTransform="translate(-13122 121932.34) scale(150 -150)" gradientUnits="userSpaceOnUse">
      <stop offset="0" stop-color="#4285f4"/>
      <stop offset="1" stop-color="#2b66c9"/>
    </linearGradient>
    <linearGradient id="_名称未設定グラデーション_4" data-name="名称未設定グラデーション 4" x1="89.79" y1="808.65" x2="91.77" y2="806.66" gradientTransform="translate(-6222 61311.67) scale(75 -75)" gradientUnits="userSpaceOnUse">
      <stop offset="0" stop-color="#ea4335"/>
      <stop offset="1" stop-color="#ff6b5b"/>
    </linearGradient>
    <linearGradient id="_名称未設定グラデーション_5" data-name="名称未設定グラデーション 5" x1="89.09" y1="808.94" x2="91.08" y2="806.95" gradientTransform="translate(-6297 61311.67) scale(75 -75)" gradientUnits="userSpaceOnUse">
      <stop offset="0" stop-color="#fbbc05"/>
      <stop offset="1" stop-color="#ffa000"/>
    </linearGradient>
    <linearGradient id="_名称未設定グラデーション_6" data-name="名称未設定グラデーション 6" x1="88.8" y1="809.63" x2="90.79" y2="807.65" gradientTransform="translate(-6297 61236.67) scale(75 -75)" gradientUnits="userSpaceOnUse">
      <stop offset="0" stop-color="#34a853"/>
      <stop offset="1" stop-color="#0f9d58"/>
    </linearGradient>
    <linearGradient id="_名称未設定グラデーション_7" data-name="名称未設定グラデーション 7" x1="89.5" y1="809.34" x2="91.48" y2="807.36" gradientTransform="translate(-6222 61236.67) scale(75 -75)" gradientUnits="userSpaceOnUse">
      <stop offset="0" stop-color="#af52de"/>
      <stop offset="1" stop-color="#5856d6"/>
    </linearGradient>
  </defs>
  <rect class="st11" x="92" y="83.28" width="832" height="832" rx="185" ry="185"/>
  <rect class="st9" y="0" width="1024.01" height="1024"/>
  <rect class="st12" x="0" y="0" width="1024" height="1024" rx="185" ry="185"/>
  <g>
    <g>
      <path class="st10" d="M155.01,663.19c237.99-211.55,475.98-211.55,713.97,0"/>
      <path class="st1" d="M155.01,663.19c237.99,211.55,475.98,211.55,713.97,0"/>
      <circle class="st7" cx="512" cy="663.19" r="148.74"/>
      <path class="st6" d="M512,663.19h148.74c0,82.15-66.6,148.74-148.74,148.74v-148.74Z"/>
      <path class="st5" d="M512,663.19v148.74c-82.15,0-148.74-66.6-148.74-148.74h148.74Z"/>
      <path class="st4" d="M512,663.19h-148.74c0-82.15,66.6-148.74,148.74-148.74v148.74Z"/>
      <path class="st8" d="M512,663.19v-148.74c82.15,0,148.74,66.6,148.74,148.74h-148.74Z"/>
      <circle class="st13" cx="512" cy="663.19" r="75.36"/>
      <circle class="st3" cx="480.27" cy="631.45" r="23.8"/>
      <circle class="st2" cx="543.73" cy="694.92" r="11.9"/>
    </g>
    <g class="st0">
      <path class="st13" d="M243.29,406.22c-14.67,0-24.42-2.48-29.27-7.45-4.85-4.97-7.27-12.77-7.27-23.42,0-8.99,2.66-16.26,7.98-21.82,5.32-5.55,14.84-8.34,28.56-8.34,14.66,0,24.48,2.48,29.45,7.45,4.97,4.97,7.45,12.77,7.45,23.42,0,8.75-2.66,15.96-7.98,21.64-5.32,5.68-14.96,8.51-28.91,8.51Z"/>
      <path class="st13" d="M328.8,374.29h10.64c.47-12.29.83-23.12,1.06-32.46.23-9.34.35-19.45.35-30.33v-35.12c0-8.75-1.36-14.6-4.08-17.56-2.72-2.95-7.16-4.44-13.3-4.44h-5.68c-.95-3.07-1.6-6.03-1.95-8.87-.35-2.84-.53-5.55-.53-8.16,0-8.28,4.49-12.42,13.48-12.42h52.86c.71,3.08,1.3,6.56,1.77,10.47.47,3.9.71,7.51.71,10.82,8.99-7.33,18.5-13.3,28.56-17.92,10.05-4.61,22.17-6.92,36.36-6.92,9.93,0,18.21,1.72,24.83,5.14,6.62,3.43,11.71,8.58,15.26,15.43,8.99-6.86,17.74-12,26.25-15.43,8.51-3.43,18.45-5.14,29.8-5.14,16.79,0,29.09,4.08,36.9,12.24,7.8,8.16,11.71,23.12,11.71,44.88v61.38c0,9.93.41,17.38,1.24,22.35.83,4.97,2.31,8.22,4.44,9.76,2.13,1.54,4.97,2.31,8.51,2.31h6.03c.94,3.08,1.6,5.98,1.95,8.69.36,2.72.53,5.14.53,7.27,0,8.28-4.5,12.42-13.48,12.42h-65.28c.23-5.91.53-13.3.89-22.17.36-8.87.71-18.03,1.06-27.49.36-9.46.53-17.62.53-24.48v-17.03c0-19.63-1.48-33.29-4.44-40.98-2.96-7.68-9.52-11.53-19.69-11.53-5.92,0-11.06,2.37-15.43,7.1-4.38,4.73-6.56,14.07-6.56,28.03v17.38c0,10.88.12,20.99.35,30.33.23,9.35.59,20.17,1.06,32.46h14.55c.94,3.08,1.6,5.98,1.95,8.69.36,2.72.53,5.14.53,7.27,0,8.28-4.49,12.42-13.48,12.42h-73.44c-.95-3.07-1.6-5.97-1.95-8.69-.35-2.72-.53-5.14-.53-7.27,0-8.28,4.49-12.42,13.48-12.42h2.48c.47-11.35.83-21.46,1.06-30.33.23-8.87.35-18.03.35-27.49v-4.61c0-19.63-1.48-33.35-4.43-41.15-2.96-7.81-8.93-11.71-17.92-11.71-6.62,0-12.24,2.37-16.85,7.1-4.61,4.73-6.92,14.07-6.92,28.03v17.38c0,10.88.12,20.99.35,30.33.23,9.35.59,20.17,1.06,32.46h10.64c.94,3.08,1.6,5.98,1.95,8.69.35,2.72.53,5.14.53,7.27,0,8.28-4.5,12.42-13.48,12.42h-77.7c-.95-3.07-1.6-5.97-1.95-8.69-.35-2.72-.53-5.14-.53-7.27,0-8.28,4.49-12.42,13.48-12.42Z"/>
      <path class="st13" d="M819.09,402.67h-47.89c-.95-2.6-1.83-5.62-2.66-9.05-.83-3.43-1.48-6.68-1.95-9.76-6.15,6.62-13.6,12.01-22.35,16.14-8.75,4.14-19.4,6.21-31.93,6.21-25.07,0-44.29-7.92-57.65-23.77-13.37-15.84-20.04-36.77-20.04-62.79,0-23.89,4.08-43.04,12.24-57.47,8.16-14.42,19.27-24.83,33.35-31.22,14.07-6.39,29.98-9.58,47.72-9.58,5.68,0,10.88.42,15.61,1.24,4.73.83,8.99,1.95,12.77,3.37v-18.8c0-8.75-1.36-14.6-4.08-17.56-2.72-2.95-7.16-4.43-13.3-4.43h-12.77c-.95-3.07-1.6-6.03-1.95-8.87-.35-2.84-.53-5.55-.53-8.16,0-8.28,4.49-12.42,13.48-12.42h74.86c0,5.68-.18,13.07-.53,22.17-.36,9.11-.71,18.57-1.06,28.38-.36,9.82-.53,18.75-.53,26.79v115.3c0,10.88,1,17.92,3.02,21.11,2.01,3.19,5.73,4.79,11.17,4.79h6.03c.94,3.08,1.6,5.98,1.95,8.69.35,2.72.53,5.14.53,7.27,0,8.28-4.5,12.42-13.48,12.42ZM756.3,332.78v-70.6c-4.26-3.31-8.93-5.73-14.01-7.27-5.09-1.54-10.59-2.31-16.5-2.31-10.64,0-18.86,3.96-24.66,11.88-5.8,7.93-8.69,22.06-8.69,42.4,0,16.8,1.65,29.8,4.97,39.02,3.31,9.22,7.68,15.55,13.13,18.98,5.44,3.43,11.23,5.14,17.38,5.14,8.99,0,15.96-2.84,20.93-8.51,4.97-5.68,7.45-15.26,7.45-28.74Z"/>
    </g>
  </g>
</svg>